<svg xmlns="http://www.w3.org/2000/svg" viewBox="0 0 40 40"><g><g transform="matrix(1 0 0 1 0 0)"><path d="M20.0000 0.0000 C8.9597 0.0000 0.0000 8.9597 0.0000 20.0000 C0.0000 31.0403 8.9597 40.0000 20.0000 40.0000 C31.0403 40.0000 40.0000 31.0403 40.0000 20.0000 C40.0000 8.9597 31.0403 0.0000 20.0000 0.0000 ZM28.1210 29.4274 C27.7823 29.4274 27.5726 29.3226 27.2581 29.1371 C22.2258 26.1048 16.3710 25.9758 10.5887 27.1613 C10.2742 27.2419 9.8629 27.3710 9.6290 27.3710 C8.8468 27.3710 8.3548 26.7500 8.3548 26.0968 C8.3548 25.2661 8.8468 24.8710 9.4516 24.7419 C16.0565 23.2823 22.8065 23.4113 28.5645 26.8548 C29.0565 27.1694 29.3468 27.4516 29.3468 28.1855 C29.3468 28.9194 28.7742 29.4274 28.1210 29.4274 ZM30.2903 24.1371 C29.8710 24.1371 29.5887 23.9516 29.2984 23.7984 C24.2581 20.8145 16.7419 19.6129 10.0565 21.4274 C9.6694 21.5323 9.4597 21.6371 9.0968 21.6371 C8.2339 21.6371 7.5323 20.9355 7.5323 20.0726 C7.5323 19.2097 7.9516 18.6371 8.7823 18.4032 C11.0242 17.7742 13.3145 17.3065 16.6694 17.3065 C21.9032 17.3065 26.9597 18.6048 30.9435 20.9758 C31.5968 21.3629 31.8548 21.8629 31.8548 22.5645 C31.8468 23.4355 31.1694 24.1371 30.2903 24.1371 ZM32.7903 17.9919 C32.3710 17.9919 32.1129 17.8871 31.7500 17.6774 C26.0081 14.2500 15.7419 13.4274 9.0968 15.2823 C8.8065 15.3629 8.4435 15.4919 8.0565 15.4919 C6.9919 15.4919 6.1774 14.6613 6.1774 13.5887 C6.1774 12.5161 6.8548 11.8710 7.5806 11.6613 C10.4194 10.8306 13.5968 10.4355 17.0565 10.4355 C22.9435 10.4355 29.1129 11.6613 33.6210 14.2903 C34.2500 14.6532 34.6613 15.1532 34.6613 16.1129 C34.6613 17.2097 33.7742 17.9919 32.7903 17.9919 Z" fill="currentColor" fill-rule="nonzero"/></g></g></svg>